GIL08_fast1_RRA_states
nRows=8
nColumns=47

# SIMM Motion File Header:
name GIL08_fast1_RRA_states
datacolumns 47
datarows 8
otherdata 1
range 0.74567000000000050000 0.74917000000000045000
endheader
time	pelvis_tx	pelvis_ty	pelvis_tz	pelvis_tilt	pelvis_list	pelvis_rotation	hip_flexion_r	hip_adduction_r	hip_rotation_r	knee_angle_r	ankle_angle_r	subtalar_angle_r	mtp_angle_r	hip_flexion_l	hip_adduction_l	hip_rotation_l	knee_angle_l	ankle_angle_l	subtalar_angle_l	mtp_angle_l	lumbar_extension	lumbar_bending	lumbar_rotation	pelvis_tx_u	pelvis_ty_u	pelvis_tz_u	pelvis_tilt_u	pelvis_list_u	pelvis_rotation_u	hip_flexion_r_u	hip_adduction_r_u	hip_rotation_r_u	knee_angle_r_u	ankle_angle_r_u	subtalar_angle_r_u	mtp_angle_r_u	hip_flexion_l_u	hip_adduction_l_u	hip_rotation_l_u	knee_angle_l_u	ankle_angle_l_u	subtalar_angle_l_u	mtp_angle_l_u	lumbar_extension_u	lumbar_bending_u	lumbar_rotation_u
      0.74567000000000050000	      1.52802760737929360000	      0.96688792446369776000	     -0.22922216275761398000	      0.12622066101637280000	     -1.95163697293612400000	      5.70990450222664500000	      2.70262908710469360000	      2.42622484957864380000	      1.87529209649167620000	    -16.77374009357842200000	      9.64921559775519810000	     -0.00000000000000022139	     -0.00000000000008087966	     14.42235968843727500000	     -3.62921559903567110000	     -3.07217938143624240000	    -59.06339114460409700000	      4.86149849843749320000	      0.00000000000006420955	     -0.00000000000104798814	     -7.64593202427058930000	      3.45711672494993480000	     -1.01230594586342870000	      1.46458325313356630000	      0.03526898393151596500	      0.11434861953900069000	    -19.00682080367501900000	     38.38850248169710300000	    -49.05111463060590200000	   -121.30102103248272000000	    -24.46809290783263100000	     17.82258081253958800000	     73.43343417495034900000	     25.96506796330974600000	     -0.00000000000009696417	      0.00000000000050309597	    174.68964653099482000000	     52.53784412046560700000	    -53.63564795466354700000	     76.23823312288348600000	    132.04594791691619000000	      0.00000000000025880330	     -0.00000000000214011065	      1.23187396522425270000	    -62.77744222442683500000	     87.35980764789169900000
      0.74617000000000044000	      1.52875990038100840000	      0.96690521612311953000	     -0.22916499170411184000	      0.11674627908492069000	     -1.93250400946807720000	      5.68534986098384020000	      2.64198740966514300000	      2.41401556670070150000	      1.88418265956594700000	    -16.73706521580692600000	      9.66220630857107390000	     -0.00000000000000026635	     -0.00000000000008065029	     14.50958233856021100000	     -3.60300515470395540000	     -3.09875807482331830000	    -59.02489877203662200000	      4.92728186822569290000	      0.00000000000006433869	     -0.00000000000104905832	     -7.64532067875176580000	      3.42579374110343740000	     -0.96866023267834633000	      1.46458859523710160000	      0.03389800497986345700	      0.11433418153463358000	    -18.89052670482837500000	     38.14307153429193400000	    -49.16683769765159400000	   -121.26602804761994000000	    -24.36910413163850800000	     17.73973886691732100000	     73.26632320871900100000	     25.99857233951019400000	     -0.00000000000008122678	      0.00000000000041872953	    174.20073638258592000000	     52.30401171841975100000	    -52.67707742764751100000	     77.73102588691827500000	    131.08694293464291000000	      0.00000000000025838453	     -0.00000000000214030924	      1.21324373892000170000	    -62.51394333131413100000	     87.22218086325851500000
      0.74667000000000050000	      1.52949219581580190000	      0.96692182282930794000	     -0.22910782997601439000	      0.10733031724991354000	     -1.91349418838700670000	      5.66073826668302350000	      2.58136272439093960000	      2.40185568930112490000	      1.89303191384696710000	    -16.70047353864037400000	      9.67521482505219940000	     -0.00000000000000030582	     -0.00000000000008044462	     14.59656020088030300000	     -3.57691151747397300000	     -3.12485441486622180000	    -58.98566034790754000000	      4.99258484942115470000	      0.00000000000006446768	     -0.00000000000105012904	     -7.64471904936033740000	      3.39460333857773170000	     -0.92508461782501206000	      1.46459298498019260000	      0.03252919154695720100	      0.11431134391080013000	    -18.77313508624864400000	     37.89591896980989100000	    -49.27894767776596300000	   -121.23304315953183000000	    -24.27045236246491900000	     17.65736793916262900000	     73.10060284598726800000	     26.03600619858731600000	     -0.00000000000008813162	      0.00000000000044941037	    173.71048316789347000000	     52.07059862596487700000	    -51.70624403034035100000	     79.22244166233433300000	    130.12438744718051000000	      0.00000000000025776394	     -0.00000000000214207120	      1.19300053881056510000	    -62.24710299532885900000	     87.07943727932658400000
      0.74717000000000044000	      1.53022449321154140000	      0.96693774568269908000	     -0.22905068174184356000	      0.09797332282785255200	     -1.89460836590733470000	      5.63607149696286220000	      2.52075402795489900000	      2.38974505049813320000	      1.90184013322719550000	    -16.66396437025016700000	      9.68824294366116410000	     -0.00000000000000035709	     -0.00000000000008019200	     14.68329259619106800000	     -3.55093448373134770000	     -3.15046232509674740000	    -58.94567655336641100000	      5.05740569087449470000	      0.00000000000006459626	     -0.00000000000105119992	     -7.64412794769862460000	      3.36354718225386100000	     -0.88158163401678669000	      1.46459644806461760000	      0.03116258788411531100	      0.11428021635343578000	    -18.65467067525654000000	     37.64711428159127800000	    -49.38755548790221200000	   -121.20208958765657000000	    -24.17218381646916500000	     17.57563129634255700000	     72.93633899652776600000	     26.07721307542226800000	     -0.00000000000010567258	      0.00000000000053168871	    173.21887739394572000000	     51.83761990641505000000	    -50.72344928821409800000	     80.71251767008240600000	    129.15844429805432000000	      0.00000000000025687935	     -0.00000000000214191989	      1.17114052728205940000	    -61.97699813561901300000	     86.93166207242266800000
      0.74767000000000050000	      1.53095679211379210000	      0.96695298579234423000	     -0.22899355112342498000	      0.08867582121655409600	     -1.87584733788515120000	      5.61135127669338020000	      2.46016029238030940000	      2.37768343374676540000	      1.91060767757575570000	    -16.62753694576772600000	      9.70129263990411770000	     -0.00000000000000040873	     -0.00000000000007992988	     14.76977885130631800000	     -3.52507382277792570000	     -3.17557592049269830000	    -58.90494804700349400000	      5.12174275596021730000	      0.00000000000006472469	     -0.00000000000105227107	     -7.64354817876017020000	      3.33262687174597170000	     -0.83815378050393441000	      1.46459901071738500000	      0.02979823686608155900	      0.11424090622334966000	    -18.53515852618038600000	     37.39672721252168200000	    -49.49277015436258200000	   -121.17319064862897000000	    -24.07434582753180800000	     17.49468933395478800000	     72.77359862858807600000	     26.12203030583811300000	     -0.00000000000010461076	      0.00000000000051659373	    172.72591038680801000000	     51.60509017401334800000	    -49.72899372194413600000	     82.20129123861376300000	    128.18927580387231000000	      0.00000000000025614880	     -0.00000000000214285168	      1.14766095504895000000	    -61.70370577205969900000	     86.77893851976915600000
      0.74817000000000045000	      1.53168909207709180000	      0.96696754430159548000	     -0.22893644217959977000	      0.07943833465435193300	     -1.85721189081472640000	      5.58657927300251520000	      2.39958049131794840000	      2.36567062541263610000	      1.91933498305727750000	    -16.59119050692269700000	      9.71436554891043610000	     -0.00000000000000046165	     -0.00000000000007966616	     14.85601827775536200000	     -3.49932931640818360000	     -3.20018942527345370000	    -58.86347547252819400000	      5.18559445971050970000	      0.00000000000006485271	     -0.00000000000105334231	     -7.64298055696957860000	      3.30184399466724440000	     -0.79480350483925688000	      1.46460070238825700000	      0.02843617959268975000	      0.11419353214036738000	    -18.41462445010575200000	     37.14482775443023100000	    -49.59470742020220500000	   -121.14636764374926000000	    -23.97698356677764400000	     17.41471027931235600000	     72.61244670245378100000	     26.17029682227170200000	     -0.00000000000010096469	      0.00000000000055695822	    172.23157112270906000000	     51.37302362508178500000	    -48.72317809378146300000	     83.68880058797201100000	    127.21706663804932000000	      0.00000000000025440680	     -0.00000000000214213366	      1.12256014022564310000	    -61.42730464847924300000	     86.62135899440922100000
      0.74867000000000050000	      1.53242139267599820000	      0.96698142236054785000	     -0.22887935891594596000	      0.07026136274068817100	     -1.83870275055127900000	      5.56175709654966700000	      2.33901357520184840000	      2.35370636320447750000	      1.92802257583121990000	    -16.55492422334538800000	      9.72746348360392690000	     -0.00000000000000051435	     -0.00000000000007936893	     14.94201019195342700000	     -3.47370071971361720000	     -3.22429725496515120000	    -58.82125945043753000000	      5.24895934630412950000	      0.00000000000006497976	     -0.00000000000105441316	     -7.64242588890982950000	      3.27120007215566670000	     -0.75153321582910981000	      1.46460155298330670000	      0.02707645571133326900	      0.11413821012082478000	    -18.29309464454744100000	     36.89148607377853000000	    -49.69348088108354500000	   -121.12164193714955000000	    -23.88014328644871800000	     17.33585916471001900000	     72.45294931735207900000	     26.22184425554885600000	     -0.00000000000009422202	      0.00000000000057874822	    171.73584958272838000000	     51.14143396029513200000	    -47.70630191299369500000	     85.17508396547808000000	    126.24200092364673000000	      0.00000000000025263654	     -0.00000000000214319254	      1.09583759177040150000	    -61.14787350225069000000	     86.45901372601449000000
      0.74917000000000045000	      1.53315369349541440000	      0.96699462115227530000	     -0.22882230527286090000	      0.06114540151483910400	     -1.82032063341751840000	      5.53688629928580500000	      2.27845849660276030000	      2.34179038780640260000	      1.93667105909231260000	    -16.51873727122102100000	      9.74058791244401510000	     -0.00000000000000056247	     -0.00000000000007906554	     15.02775389475276300000	     -3.44818780079431430000	     -3.24789393355802190000	    -58.77830058605075400000	      5.31183601876899300000	      0.00000000000006510630	     -0.00000000000105548500	     -7.64188498960689170000	      3.24069661280048130000	     -0.70834526882000715000	      1.46460159563325080000	      0.02571910319242828900	      0.11407506773579432000	    -18.17059600407266700000	     36.63677266347625800000	    -49.78921111063663600000	   -121.09903289538771000000	    -23.78386910272339300000	     17.25830918004391300000	     72.29517048654585700000	     26.27650693942927500000	     -0.00000000000011421992	      0.00000000000065764865	    171.23873322422557000000	     50.91033450102748500000	    -46.67866518174176300000	     86.66018059569589100000	    125.26428515975697000000	      0.00000000000025453210	     -0.00000000000214371674	      1.06749379298568740000	    -60.86549289697647000000	     86.29200229371824100000
